<?xml version="1.0" encoding="UTF-8" standalone="no"?>
<!DOCTYPE svg PUBLIC "-//W3C//DTD SVG 1.1//EN" "http://www.w3.org/Graphics/SVG/1.1/DTD/svg11.dtd">
<svg version="1.1" xmlns="http://www.w3.org/2000/svg" xmlns:xlink="http://www.w3.org/1999/xlink" preserveAspectRatio="xMidYMid meet" viewBox="434.27895893740344 49.93192955488898 150.18321626654335 164.75787888770475" width="146.18" height="160.76"><defs><path d="M543.48 82.06C554.82 90.45 572.6 90.8 578.79 103.48C585.1 116.39 578.85 131.64 574.37 145.3C569.91 158.92 564.73 173 553.2 181.52C541.62 190.08 526.44 189.19 512.18 191.24C495.02 193.71 475.4 205.15 461.56 194.72C447.69 184.25 453.65 162.16 450.88 145C448.64 131.08 444.8 117.86 446.92 103.92C449.39 87.63 450.88 68.81 463.99 58.83C477.15 48.81 496.3 49.58 512.18 54.22C525.92 58.24 531.97 73.55 543.48 82.06Z" id="b6pUayyxtg"></path><linearGradient id="gradientbcUj4iCzv" gradientUnits="userSpaceOnUse" x1="513.88" y1="50.93" x2="513.88" y2="199.04"><stop style="stop-color: #6d678e;stop-opacity: 1" offset="0%"></stop><stop style="stop-color: #f6b5cc;stop-opacity: 1" offset="100%"></stop></linearGradient><path d="M518.05 73.01C532.07 74.61 547.64 66.03 559.34 73.91C571.26 81.93 573.47 98.27 576.42 112.33C579.37 126.36 581.93 141.14 576.2 154.28C570.45 167.49 556.86 174.31 545.54 183.22C531.91 193.94 520.64 213.65 503.44 211.53C486.19 209.4 480.31 187.29 469.33 173.82C460.43 162.88 450.49 153.36 445.35 140.22C439.36 124.88 431.23 107.84 437.6 92.64C443.98 77.38 460.96 68.47 477.03 64.55C490.93 61.16 503.83 71.4 518.05 73.01Z" id="aXZL2GGF2"></path><linearGradient id="gradientc7RlUGU3eR" gradientUnits="userSpaceOnUse" x1="476.85" y1="60.85" x2="550.91" y2="189.11"><stop style="stop-color: #6d678e;stop-opacity: 0.5" offset="0%"></stop><stop style="stop-color: #f6b5cc;stop-opacity: 0.5" offset="100%"></stop></linearGradient><path d="M512.95 108.7C511.68 109.04 510.48 109.59 509.39 110.32C507.85 109.42 506.37 108.69 504.95 108.51C503.18 108.29 501.54 108.41 499.64 108.45C497.38 108.5 495.9 109.65 493.51 110.57C491.12 111.49 488.04 112.37 483.7 112.37C483.56 112.37 482.9 112.37 481.7 112.37L481.7 131.56L482.82 132.12L486.51 133.93L499.64 148.5C499.67 148.54 499.69 148.56 499.7 148.57C501.2 150.04 503.22 150.41 505.01 150.31C506.8 150.21 508.48 149.69 509.82 148.88C512.78 147.1 520.82 141.53 520.82 141.53C520.83 141.52 520.9 141.48 521.01 141.4C521.09 141.33 521.13 141.29 521.14 141.28C522.09 140.34 522.57 139.18 522.89 137.98C523.4 137.72 525.96 136.43 530.57 134.11L536.32 132.18L537.7 131.75L537.7 112.37C536.5 112.37 535.83 112.37 535.7 112.37C532.34 112.4 529 111.76 525.89 110.51C523.49 109.57 522.04 108.44 519.76 108.39C518.54 108.36 517.43 108.32 516.32 108.33C516.32 108.33 516.32 108.33 516.32 108.33C514.85 108.37 513.72 108.49 512.95 108.7ZM519.64 112.37C519.85 112.38 521.77 113.2 524.45 114.24C526.71 115.13 529.86 115.92 533.7 116.17C533.7 117.02 533.7 121.26 533.7 128.88L529.07 130.44L528.95 130.44L528.82 130.5C525.19 132.33 523.17 133.35 522.76 133.55C522.44 132.63 521.93 131.78 521.26 131.06C521.25 131.05 521.21 130.99 521.14 130.87L512.64 120.47L511.39 118.91L509.82 120.16C506.6 122.78 504.81 124.23 504.45 124.52C502.64 125.77 501.18 125.41 499.7 124.71C499.27 124.51 499.29 124.44 498.95 124.21C499.56 123.71 502.6 121.2 508.07 116.67C508.15 116.6 508.19 116.56 508.2 116.55C510.91 113.87 512.57 112.94 514.01 112.56C514.73 112.37 515.49 112.32 516.39 112.31C516.39 112.31 516.38 112.31 516.38 112.31C517.68 112.34 518.76 112.36 519.64 112.37ZM504.45 112.44C504.97 112.5 505.57 112.94 506.08 113.12C505.87 113.31 505.72 113.42 505.51 113.62C505.5 113.63 505.46 113.67 505.39 113.75L494.45 122.78L492.76 124.15C493.66 125.08 494.16 125.6 494.26 125.7C494.26 125.7 495.71 127.26 497.95 128.32C500.19 129.38 503.65 129.98 506.76 127.82C506.77 127.82 506.81 127.77 506.89 127.7L510.76 124.52L518.14 133.55L518.2 133.68C518.24 133.72 518.26 133.74 518.26 133.74C519.58 135.04 519.55 137.09 518.26 138.41C518.25 138.43 518.28 138.46 518.26 138.47C518.25 138.48 517.98 138.64 517.95 138.66C517.77 138.43 516.9 137.24 515.32 135.11L512.07 137.48C513.61 139.53 514.47 140.68 514.64 140.9C513.6 141.6 513.13 141.97 512.01 142.71C511.83 142.47 510.94 141.27 509.33 139.1L506.07 141.47C507.61 143.52 508.47 144.66 508.64 144.89C508.41 145.03 507.94 145.34 507.76 145.45C507.13 145.83 505.91 146.26 504.82 146.32C503.8 146.38 503.02 146.14 502.64 145.82C502.63 145.82 502.61 145.8 502.58 145.76L489.2 131L488.95 130.69L485.7 129.07C485.7 121.33 485.7 117.03 485.7 116.17C489.52 115.92 492.69 115.17 494.95 114.31C497.62 113.29 499.53 112.44 499.76 112.44C499.94 112.43 500.83 112.41 502.45 112.37L502.45 112.37C503.34 112.37 504.01 112.39 504.45 112.44Z" id="b5JvP8guZx"></path></defs><g><g><use xlink:href="#b6pUayyxtg" opacity="1" fill="url(#gradientbcUj4iCzv)"></use><g><use xlink:href="#b6pUayyxtg" opacity="1" fill-opacity="0" stroke="#000000" stroke-width="1" stroke-opacity="0"></use></g></g><g><use xlink:href="#aXZL2GGF2" opacity="1" fill="url(#gradientc7RlUGU3eR)"></use><g><use xlink:href="#aXZL2GGF2" opacity="1" fill-opacity="0" stroke="#000000" stroke-width="1" stroke-opacity="0"></use></g></g><g><use xlink:href="#b5JvP8guZx" opacity="1" fill="#ffffff" fill-opacity="1"></use><g><use xlink:href="#b5JvP8guZx" opacity="1" fill-opacity="0" stroke="#000000" stroke-width="1" stroke-opacity="0"></use></g></g></g></svg>