<?xml version="1.0" encoding="UTF-8" standalone="no"?>
<!DOCTYPE svg PUBLIC "-//W3C//DTD SVG 1.1//EN" "http://www.w3.org/Graphics/SVG/1.1/DTD/svg11.dtd">
<svg version="1.1" xmlns="http://www.w3.org/2000/svg" xmlns:xlink="http://www.w3.org/1999/xlink" preserveAspectRatio="xMidYMid meet" viewBox="30.94755414223919 12.647162420212 154.52100379359905 158.43630609910383" width="150.52" height="154.44"><defs><path d="M82.67 149.27C69.54 144.1 52.28 148.36 43.02 137.72C33.59 126.88 35.67 110.53 36.46 96.19C37.25 81.87 38.6 66.93 47.54 55.72C56.51 44.45 71.4 41.38 84.64 35.71C100.58 28.88 116.57 12.75 132.64 19.25C148.75 25.77 148.71 48.66 155.82 64.51C161.59 77.38 168.72 89.15 170.29 103.17C172.11 119.54 175.54 138.1 165.46 151.14C155.35 164.22 136.64 168.43 120.11 168.06C105.8 167.74 95.99 154.51 82.67 149.27Z" id="b1KxT6LY9G"></path><linearGradient id="gradienta47Sy5eTK" gradientUnits="userSpaceOnUse" x1="119.32" y1="171.68" x2="80.98" y2="28.62"><stop style="stop-color: #6d678e;stop-opacity: 1" offset="0%"></stop><stop style="stop-color: #f6b5cc;stop-opacity: 1" offset="100%"></stop></linearGradient><path d="M109.57 151.43C95.62 153.52 82.8 165.84 69.46 161.25C55.87 156.58 49.5 141.38 43.01 128.56C36.54 115.77 30.24 102.16 32.37 87.98C34.51 73.73 45.87 63.63 54.5 52.09C64.89 38.21 70.67 16.25 87.84 13.85C105.05 11.44 116.46 31.28 130.54 41.45C141.97 49.71 154.04 56.34 162.4 67.7C172.16 80.96 184.42 95.32 182.21 111.65C179.99 128.04 165.9 141.04 151.39 148.98C138.83 155.86 123.73 149.31 109.57 151.43Z" id="aJ9tXyOy"></path><linearGradient id="gradientatHsoH2iD" gradientUnits="userSpaceOnUse" x1="152.51" y1="152.51" x2="47.79" y2="47.79"><stop style="stop-color: #6d678e;stop-opacity: 0.5" offset="0%"></stop><stop style="stop-color: #f6b5cc;stop-opacity: 0.5" offset="100%"></stop></linearGradient><path d="M92.5 71.5C82.56 71.5 74.5 79.56 74.5 89.5C74.5 99.44 82.56 107.5 92.5 107.5C102.44 107.5 110.5 99.44 110.5 89.5C110.5 79.56 102.44 71.5 92.5 71.5Z" id="b7BIgsKwm6"></path><path d="M118.5 71.5C108.56 71.5 100.5 79.56 100.5 89.5C100.5 99.44 108.56 107.5 118.5 107.5C128.44 107.5 136.5 99.44 136.5 89.5C136.5 79.56 128.44 71.5 118.5 71.5Z" id="e7sI0DgOj"></path><path d="M105.5 88.5C95.56 88.5 87.5 96.56 87.5 106.5C87.5 116.44 95.56 124.5 105.5 124.5C115.44 124.5 123.5 116.44 123.5 106.5C123.5 96.56 115.44 88.5 105.5 88.5Z" id="cgiXktkUa"></path></defs><g><g><use xlink:href="#b1KxT6LY9G" opacity="1" fill="url(#gradienta47Sy5eTK)"></use><g><use xlink:href="#b1KxT6LY9G" opacity="1" fill-opacity="0" stroke="#000000" stroke-width="1" stroke-opacity="0"></use></g></g><g><use xlink:href="#aJ9tXyOy" opacity="1" fill="url(#gradientatHsoH2iD)"></use><g><use xlink:href="#aJ9tXyOy" opacity="1" fill-opacity="0" stroke="#000000" stroke-width="1" stroke-opacity="0"></use></g></g><g><use xlink:href="#b7BIgsKwm6" opacity="1" fill="#000000" fill-opacity="0"></use><g><use xlink:href="#b7BIgsKwm6" opacity="1" fill-opacity="0" stroke="#ffffff" stroke-width="3" stroke-opacity="1"></use></g></g><g><use xlink:href="#e7sI0DgOj" opacity="1" fill="#000000" fill-opacity="0"></use><g><use xlink:href="#e7sI0DgOj" opacity="1" fill-opacity="0" stroke="#ffffff" stroke-width="3" stroke-opacity="1"></use></g></g><g><use xlink:href="#cgiXktkUa" opacity="1" fill="#000000" fill-opacity="0"></use><g><use xlink:href="#cgiXktkUa" opacity="1" fill-opacity="0" stroke="#ffffff" stroke-width="3" stroke-opacity="1"></use></g></g></g></svg>