<?xml version="1.0" encoding="UTF-8" standalone="no"?>
<!DOCTYPE svg PUBLIC "-//W3C//DTD SVG 1.1//EN" "http://www.w3.org/Graphics/SVG/1.1/DTD/svg11.dtd">
<svg version="1.1" xmlns="http://www.w3.org/2000/svg" xmlns:xlink="http://www.w3.org/1999/xlink" preserveAspectRatio="xMidYMid meet" viewBox="190.47815283269207 288.0536228317212 158.60087710847623 155.16681168350567" width="154.6" height="151.17"><defs><path d="M328.05 359.5C330.9 373.32 343.9 385.44 340.05 399.01C336.13 412.84 321.3 420.03 308.86 427.21C296.44 434.37 283.19 441.41 268.91 440.05C254.58 438.69 243.86 427.9 231.88 419.92C217.45 410.3 195.2 405.73 191.87 388.72C188.52 371.66 207.7 359.19 217.09 344.57C224.71 332.7 230.67 320.3 241.56 311.33C254.27 300.85 267.94 287.83 284.37 289.15C300.85 290.47 314.6 303.83 323.33 317.88C330.88 330.04 325.16 345.48 328.05 359.5Z" id="a1PLKzzcAa"></path><linearGradient id="gradientmPeZC2eM" gradientUnits="userSpaceOnUse" x1="326.79" y1="316.56" x2="227.94" y2="426.85"><stop style="stop-color: #6d678e;stop-opacity: 1" offset="0%"></stop><stop style="stop-color: #f6b5cc;stop-opacity: 1" offset="100%"></stop></linearGradient><path d="M315.16 335.79C324.53 346.33 341.85 350.34 345.31 364.01C348.83 377.94 339.58 391.59 332.39 404.03C325.21 416.44 317.26 429.15 304.22 435.12C291.12 441.11 276.45 437.13 262.07 436.2C244.77 435.09 223.22 442.25 211.83 429.19C200.4 416.09 210.78 395.7 211.6 378.34C212.26 364.26 211.22 350.53 216.17 337.32C221.94 321.89 227.26 303.78 242.15 296.71C257.08 289.61 275.67 294.3 290.25 302.11C302.88 308.86 305.64 325.09 315.16 335.79Z" id="d1klZ1Di21"></path><linearGradient id="gradientf8G8u0jm3" gradientUnits="userSpaceOnUse" x1="292.59" y1="299.24" x2="262.14" y2="444.18"><stop style="stop-color: #6d678e;stop-opacity: 0.5" offset="0%"></stop><stop style="stop-color: #f6b5cc;stop-opacity: 0.5" offset="100%"></stop></linearGradient><path d="M254.2 383C254.48 382.72 254.86 382.56 255.26 382.56C259.76 382.56 295.76 382.56 300.26 382.56C300.66 382.56 301.04 382.72 301.32 383C301.6 383.28 301.76 383.66 301.76 384.06C301.76 384.46 301.6 384.84 301.32 385.12C301.04 385.4 300.66 385.56 300.26 385.56C295.76 385.56 259.76 385.56 255.26 385.56C254.86 385.56 254.48 385.4 254.2 385.12C253.92 384.84 253.76 384.46 253.76 384.06C253.76 383.66 253.92 383.28 254.2 383ZM263.63 340.7C263.83 340.61 264.04 340.56 264.26 340.56C266.96 340.56 288.56 340.56 291.26 340.56C291.48 340.56 291.69 340.61 291.89 340.7C292.08 340.79 292.26 340.92 292.4 341.08C293.23 342.05 299.85 349.77 300.68 350.74C301.38 351.56 301.76 352.59 301.76 353.67C301.76 353.69 301.76 353.82 301.76 354.06L298.76 354.06C298.76 353.82 298.76 353.69 298.76 353.67C298.76 353.31 298.63 352.96 298.4 352.69C297.88 352.08 295.27 349.04 290.57 343.56L264.95 343.56C260.25 349.04 257.64 352.08 257.12 352.69C256.89 352.96 256.76 353.31 256.76 353.67C256.76 353.69 256.76 353.82 256.76 354.06L253.76 354.06C253.76 353.82 253.76 353.69 253.76 353.67C253.76 352.59 254.14 351.56 254.84 350.74C255.39 350.1 258.15 346.88 263.12 341.08L263.12 341.08C263.33 340.89 263.5 340.76 263.63 340.7Z" id="nsbolowg9"></path><path d="M265.01 354.06C265.31 354.06 267.71 354.06 268.01 354.06C268.01 355.15 268.44 356.2 269.22 356.98C269.99 357.75 271.04 358.18 272.13 358.18C273.23 358.18 274.28 357.75 275.05 356.98C275.82 356.2 276.26 355.15 276.26 354.06C276.56 354.06 278.96 354.06 279.26 354.06C279.26 355.15 279.69 356.2 280.47 356.98C281.24 357.75 282.29 358.18 283.38 358.18C284.48 358.18 285.53 357.75 286.3 356.98C287.07 356.2 287.51 355.15 287.51 354.06C287.81 354.06 290.21 354.06 290.51 354.06C290.51 355.15 290.94 356.2 291.72 356.98C292.49 357.75 293.54 358.18 294.63 358.18C295.73 358.18 296.78 357.75 297.55 356.98C298.32 356.2 298.76 355.15 298.76 354.06C299.06 354.06 301.46 354.06 301.76 354.06C301.76 355.54 301.3 356.99 300.43 358.2C299.57 359.41 298.35 360.32 296.95 360.8C295.54 361.28 294.02 361.31 292.6 360.89C291.18 360.46 289.92 359.6 289.01 358.43C288.34 359.29 287.49 359.98 286.52 360.46C285.54 360.94 284.47 361.18 283.38 361.18C282.3 361.18 281.23 360.94 280.25 360.46C279.28 359.98 278.42 359.29 277.76 358.43C277.09 359.29 276.24 359.98 275.27 360.46C274.29 360.94 273.22 361.18 272.13 361.18C271.05 361.18 269.98 360.94 269 360.46C268.03 359.98 267.17 359.29 266.51 358.43C265.6 359.6 264.34 360.46 262.92 360.89C261.5 361.31 259.98 361.28 258.57 360.8C257.17 360.32 255.95 359.41 255.09 358.2C254.22 356.99 253.76 355.54 253.76 354.06C254.06 354.06 256.46 354.06 256.76 354.06C256.76 356.34 258.61 358.18 260.88 358.18C263.16 358.18 265.01 356.34 265.01 354.06Z" id="fbtiSm0tJ"></path><path d="M267.57 355.12C267.29 355.4 266.91 355.56 266.51 355.56C266.11 355.56 265.73 355.4 265.45 355.12C265.17 354.84 265.01 354.46 265.01 354.06C265.01 353.66 265.17 353.28 265.45 353C265.73 352.72 266.11 352.56 266.51 352.56C266.91 352.56 267.29 352.72 267.57 353C267.85 353.28 268.01 353.66 268.01 354.06C268.01 354.46 267.85 354.84 267.57 355.12ZM278.82 355.12C278.54 355.4 278.16 355.56 277.76 355.56C277.36 355.56 276.98 355.4 276.7 355.12C276.42 354.84 276.26 354.46 276.26 354.06C276.26 353.66 276.42 353.28 276.7 353C276.98 352.72 277.36 352.56 277.76 352.56C278.16 352.56 278.54 352.72 278.82 353C279.1 353.28 279.26 353.66 279.26 354.06C279.26 354.46 279.1 354.84 278.82 355.12ZM290.07 355.12C289.79 355.4 289.41 355.56 289.01 355.56C288.61 355.56 288.23 355.4 287.95 355.12C287.67 354.84 287.51 354.46 287.51 354.06C287.51 353.66 287.67 353.28 287.95 353C288.23 352.72 288.61 352.56 289.01 352.56C289.41 352.56 289.79 352.72 290.07 353C290.35 353.28 290.51 353.66 290.51 354.06C290.51 354.46 290.35 354.84 290.07 355.12Z" id="a39ayvrE3b"></path><path d="M259.76 358.56L256.76 358.56C256.76 359.34 256.76 359.78 256.76 359.87C257.63 360.49 258.66 360.92 259.76 361.1C259.76 360.76 259.76 359.91 259.76 358.56ZM259.76 364.12C259.76 365.35 259.76 371.5 259.76 382.56L256.76 382.56L256.76 363.31C258.05 363.77 259.05 364.04 259.76 364.12ZM298.76 363.31C298.76 364.59 298.76 371.01 298.76 382.56L295.76 382.56L295.76 364.12C297.13 363.86 298.13 363.59 298.76 363.31ZM295.76 361.1C295.76 360.93 295.76 360.08 295.76 358.56L298.76 358.56L298.76 359.87C297.5 360.57 296.5 360.98 295.76 361.1ZM263.2 365C263.48 364.72 263.86 364.56 264.26 364.56C265.46 364.56 275.06 364.56 276.26 364.56C276.66 364.56 277.04 364.72 277.32 365C277.6 365.28 277.76 365.66 277.76 366.06C277.76 367.16 277.76 372.66 277.76 382.56L274.76 382.56L274.76 367.56L265.76 367.56L265.76 382.56L262.76 382.56L262.76 366.06C262.87 365.54 263.01 365.18 263.2 365ZM281.2 365C281.48 364.72 281.86 364.56 282.26 364.56C283.16 364.56 290.36 364.56 291.26 364.56C291.66 364.56 292.04 364.72 292.32 365C292.6 365.28 292.76 365.66 292.76 366.06C292.76 367.26 292.76 376.86 292.76 378.06C292.76 378.46 292.6 378.84 292.32 379.12C292.04 379.4 291.66 379.56 291.26 379.56C290.36 379.56 283.16 379.56 282.26 379.56C281.86 379.56 281.48 379.4 281.2 379.12C280.92 378.84 280.76 378.46 280.76 378.06C280.76 377.26 280.76 373.26 280.76 366.06C280.87 365.54 281.01 365.18 281.2 365ZM283.76 376.56L289.76 376.56L289.76 367.56L283.76 367.56L283.76 376.56Z" id="e55wsTAyd"></path><path d="M257.13 393.98L259.73 393.98L257.63 395.47L258.43 397.89L256.33 396.4L254.23 397.89L255.03 395.47L252.93 393.98L255.53 393.98L256.33 391.56L257.13 393.98Z" id="dVZ6BMdRz"></path><path d="M267.85 393.98L270.44 393.98L268.34 395.47L269.14 397.89L267.05 396.4L264.95 397.89L265.75 395.47L263.65 393.98L266.24 393.98L267.05 391.56L267.85 393.98Z" id="bnnMdEll9"></path><path d="M278.56 393.98L281.16 393.98L279.06 395.47L279.86 397.89L277.76 396.4L275.66 397.89L276.46 395.47L274.36 393.98L276.96 393.98L277.76 391.56L278.56 393.98Z" id="b23VNIousZ"></path><path d="M289.28 393.98L291.87 393.98L289.77 395.47L290.57 397.89L288.47 396.4L286.37 397.89L287.18 395.47L285.08 393.98L287.67 393.98L288.47 391.56L289.28 393.98Z" id="b20OVJeLoJ"></path><path d="M299.99 393.98L302.58 393.98L300.49 395.47L301.29 397.89L299.19 396.4L297.09 397.89L297.89 395.47L295.79 393.98L298.39 393.98L299.19 391.56L299.99 393.98Z" id="d5q53g61uc"></path></defs><g><g><use xlink:href="#a1PLKzzcAa" opacity="1" fill="url(#gradientmPeZC2eM)"></use><g><use xlink:href="#a1PLKzzcAa" opacity="1" fill-opacity="0" stroke="#000000" stroke-width="1" stroke-opacity="0"></use></g></g><g><use xlink:href="#d1klZ1Di21" opacity="1" fill="url(#gradientf8G8u0jm3)"></use><g><use xlink:href="#d1klZ1Di21" opacity="1" fill-opacity="0" stroke="#000000" stroke-width="1" stroke-opacity="0"></use></g></g><g><use xlink:href="#nsbolowg9" opacity="1" fill="#ffffff" fill-opacity="1"></use><g><use xlink:href="#nsbolowg9" opacity="1" fill-opacity="0" stroke="#000000" stroke-width="1" stroke-opacity="0"></use></g></g><g><use xlink:href="#fbtiSm0tJ" opacity="1" fill="#ffffff" fill-opacity="1"></use><g><use xlink:href="#fbtiSm0tJ" opacity="1" fill-opacity="0" stroke="#000000" stroke-width="1" stroke-opacity="0"></use></g></g><g><use xlink:href="#a39ayvrE3b" opacity="1" fill="#ffffff" fill-opacity="1"></use><g><use xlink:href="#a39ayvrE3b" opacity="1" fill-opacity="0" stroke="#000000" stroke-width="1" stroke-opacity="0"></use></g></g><g><use xlink:href="#e55wsTAyd" opacity="1" fill="#ffffff" fill-opacity="1"></use><g><use xlink:href="#e55wsTAyd" opacity="1" fill-opacity="0" stroke="#000000" stroke-width="1" stroke-opacity="0"></use></g></g><g><use xlink:href="#dVZ6BMdRz" opacity="1" fill="#ffffff" fill-opacity="1"></use><g><use xlink:href="#dVZ6BMdRz" opacity="1" fill-opacity="0" stroke="#000000" stroke-width="1" stroke-opacity="0"></use></g></g><g><use xlink:href="#bnnMdEll9" opacity="1" fill="#ffffff" fill-opacity="1"></use><g><use xlink:href="#bnnMdEll9" opacity="1" fill-opacity="0" stroke="#000000" stroke-width="1" stroke-opacity="0"></use></g></g><g><use xlink:href="#b23VNIousZ" opacity="1" fill="#ffffff" fill-opacity="1"></use><g><use xlink:href="#b23VNIousZ" opacity="1" fill-opacity="0" stroke="#000000" stroke-width="1" stroke-opacity="0"></use></g></g><g><use xlink:href="#b20OVJeLoJ" opacity="1" fill="#ffffff" fill-opacity="1"></use><g><use xlink:href="#b20OVJeLoJ" opacity="1" fill-opacity="0" stroke="#000000" stroke-width="1" stroke-opacity="0"></use></g></g><g><use xlink:href="#d5q53g61uc" opacity="1" fill="#ffffff" fill-opacity="1"></use><g><use xlink:href="#d5q53g61uc" opacity="1" fill-opacity="0" stroke="#000000" stroke-width="1" stroke-opacity="0"></use></g></g></g></svg>