<svg xmlns="http://www.w3.org/2000/svg" xmlns:xlink="http://www.w3.org/1999/xlink" viewBox="190.478 288.054 158.601 155.167" width="154.6" height="151.17"><defs><path d="M328.05 359.5c2.85 13.82 15.85 25.94 12 39.51-3.92 13.83-18.75 21.02-31.19 28.2-12.42 7.16-25.67 14.2-39.95 12.84-14.33-1.36-25.05-12.15-37.03-20.13-14.43-9.62-36.68-14.19-40.01-31.2-3.35-17.06 15.83-29.53 25.22-44.15 7.62-11.87 13.58-24.27 24.47-33.24 12.71-10.48 26.38-23.5 42.81-22.18 16.48 1.32 30.23 14.68 38.96 28.73 7.55 12.16 1.83 27.6 4.72 41.62z" id="a1PLKzzcAa"/><path d="M315.16 335.79c9.37 10.54 26.69 14.55 30.15 28.22 3.52 13.93-5.73 27.58-12.92 40.02-7.18 12.41-15.13 25.12-28.17 31.09-13.1 5.99-27.77 2.01-42.15 1.08-17.3-1.11-38.85 6.05-50.24-7.01-11.43-13.1-1.05-33.49-.23-50.85.66-14.08-.38-27.81 4.57-41.02 5.77-15.43 11.09-33.54 25.98-40.61 14.93-7.1 33.52-2.41 48.1 5.4 12.63 6.75 15.39 22.98 24.91 33.68z" id="d1klZ1Di21"/><path d="M254.2 383c.28-.28.66-.44 1.06-.44h45a1.499 1.499 0 011.06 2.56c-.28.28-.66.44-1.06.44h-45a1.499 1.499 0 01-1.06-2.56zm9.43-42.3c.2-.09.41-.14.63-.14h27a1.523 1.523 0 011.14.52c.83.97 7.45 8.69 8.28 9.66.7.82 1.08 1.85 1.08 2.93v.39h-3v-.39c0-.36-.13-.71-.36-.98-.52-.61-3.13-3.65-7.83-9.13h-25.62c-4.7 5.48-7.31 8.52-7.83 9.13-.23.27-.36.62-.36.98v.39h-3v-.39c0-1.08.38-2.11 1.08-2.93.55-.64 3.31-3.86 8.28-9.66.21-.19.38-.32.51-.38z" id="nsbolowg9"/><path d="M265.01 354.06h3a4.117 4.117 0 004.12 4.12c1.1 0 2.15-.43 2.92-1.2.77-.78 1.21-1.83 1.21-2.92h3a4.117 4.117 0 004.12 4.12c1.1 0 2.15-.43 2.92-1.2.77-.78 1.21-1.83 1.21-2.92h3a4.117 4.117 0 004.12 4.12c1.1 0 2.15-.43 2.92-1.2.77-.78 1.21-1.83 1.21-2.92h3c0 1.48-.46 2.93-1.33 4.14a7.098 7.098 0 01-3.48 2.6 7.18 7.18 0 01-4.35.09 7.193 7.193 0 01-3.59-2.46c-.67.86-1.52 1.55-2.49 2.03-.98.48-2.05.72-3.14.72-1.08 0-2.15-.24-3.13-.72a7.107 7.107 0 01-2.49-2.03c-.67.86-1.52 1.55-2.49 2.03-.98.48-2.05.72-3.14.72-1.08 0-2.15-.24-3.13-.72a7.107 7.107 0 01-2.49-2.03 7.193 7.193 0 01-3.59 2.46 7.18 7.18 0 01-4.35-.09 7.098 7.098 0 01-3.48-2.6 7.09 7.09 0 01-1.33-4.14h3a4.12 4.12 0 004.12 4.12c2.28 0 4.13-1.84 4.13-4.12z" id="fbtiSm0tJ"/><path d="M267.57 355.12a1.499 1.499 0 11-2.12-2.12 1.499 1.499 0 112.12 2.12zm11.25 0a1.499 1.499 0 11-2.12-2.12 1.499 1.499 0 112.12 2.12zm11.25 0a1.499 1.499 0 11-2.12-2.12 1.499 1.499 0 112.12 2.12z" id="a39ayvrE3b"/><path d="M259.76 358.56h-3v1.31c.87.62 1.9 1.05 3 1.23v-2.54zm0 5.56v18.44h-3v-19.25c1.29.46 2.29.73 3 .81zm39-.81v19.25h-3v-18.44c1.37-.26 2.37-.53 3-.81zm-3-2.21v-2.54h3v1.31c-1.26.7-2.26 1.11-3 1.23zM263.2 365c.28-.28.66-.44 1.06-.44h12a1.499 1.499 0 011.5 1.5v16.5h-3v-15h-9v15h-3v-16.5c.11-.52.25-.88.44-1.06zm18 0c.28-.28.66-.44 1.06-.44h9a1.499 1.499 0 011.5 1.5v12a1.499 1.499 0 01-1.5 1.5h-9a1.499 1.499 0 01-1.5-1.5v-12c.11-.52.25-.88.44-1.06zm2.56 11.56h6v-9h-6v9z" id="e55wsTAyd"/><path d="M257.13 393.98h2.6l-2.1 1.49.8 2.42-2.1-1.49-2.1 1.49.8-2.42-2.1-1.49h2.6l.8-2.42.8 2.42z" id="dVZ6BMdRz"/><path d="M267.85 393.98h2.59l-2.1 1.49.8 2.42-2.09-1.49-2.1 1.49.8-2.42-2.1-1.49h2.59l.81-2.42.8 2.42z" id="bnnMdEll9"/><path d="M278.56 393.98h2.6l-2.1 1.49.8 2.42-2.1-1.49-2.1 1.49.8-2.42-2.1-1.49h2.6l.8-2.42.8 2.42z" id="b23VNIousZ"/><path d="M289.28 393.98h2.59l-2.1 1.49.8 2.42-2.1-1.49-2.1 1.49.81-2.42-2.1-1.49h2.59l.8-2.42.81 2.42z" id="b20OVJeLoJ"/><path d="M299.99 393.98h2.59l-2.09 1.49.8 2.42-2.1-1.49-2.1 1.49.8-2.42-2.1-1.49h2.6l.8-2.42.8 2.42z" id="d5q53g61uc"/><linearGradient id="gradientmPeZC2eM" gradientUnits="userSpaceOnUse" x1="326.79" y1="316.56" x2="227.94" y2="426.85"><stop offset="0%" stop-color="#6d678e"/><stop offset="100%" stop-color="#f6b5cc"/></linearGradient><linearGradient id="gradientf8G8u0jm3" gradientUnits="userSpaceOnUse" x1="292.59" y1="299.24" x2="262.14" y2="444.18"><stop offset="0%" stop-color="#6d678e" stop-opacity=".5"/><stop offset="100%" stop-color="#f6b5cc" stop-opacity=".5"/></linearGradient></defs><use xlink:href="#a1PLKzzcAa" fill="url(#gradientmPeZC2eM)"/><use xlink:href="#a1PLKzzcAa" fill-opacity="0" stroke="#000" stroke-opacity="0"/><use xlink:href="#d1klZ1Di21" fill="url(#gradientf8G8u0jm3)"/><use xlink:href="#d1klZ1Di21" fill-opacity="0" stroke="#000" stroke-opacity="0"/><use xlink:href="#nsbolowg9" fill="#fff"/><use xlink:href="#nsbolowg9" fill-opacity="0" stroke="#000" stroke-opacity="0"/><use xlink:href="#fbtiSm0tJ" fill="#fff"/><use xlink:href="#fbtiSm0tJ" fill-opacity="0" stroke="#000" stroke-opacity="0"/><use xlink:href="#a39ayvrE3b" fill="#fff"/><use xlink:href="#a39ayvrE3b" fill-opacity="0" stroke="#000" stroke-opacity="0"/><use xlink:href="#e55wsTAyd" fill="#fff"/><use xlink:href="#e55wsTAyd" fill-opacity="0" stroke="#000" stroke-opacity="0"/><use xlink:href="#dVZ6BMdRz" fill="#fff"/><use xlink:href="#dVZ6BMdRz" fill-opacity="0" stroke="#000" stroke-opacity="0"/><use xlink:href="#bnnMdEll9" fill="#fff"/><use xlink:href="#bnnMdEll9" fill-opacity="0" stroke="#000" stroke-opacity="0"/><use xlink:href="#b23VNIousZ" fill="#fff"/><use xlink:href="#b23VNIousZ" fill-opacity="0" stroke="#000" stroke-opacity="0"/><use xlink:href="#b20OVJeLoJ" fill="#fff"/><use xlink:href="#b20OVJeLoJ" fill-opacity="0" stroke="#000" stroke-opacity="0"/><use xlink:href="#d5q53g61uc" fill="#fff"/><use xlink:href="#d5q53g61uc" fill-opacity="0" stroke="#000" stroke-opacity="0"/></svg>