<svg xmlns="http://www.w3.org/2000/svg" xmlns:xlink="http://www.w3.org/1999/xlink" viewBox="434.279 49.932 150.183 164.758" width="146.18" height="160.76"><defs><path d="M543.48 82.06c11.34 8.39 29.12 8.74 35.31 21.42 6.31 12.91.06 28.16-4.42 41.82-4.46 13.62-9.64 27.7-21.17 36.22-11.58 8.56-26.76 7.67-41.02 9.72-17.16 2.47-36.78 13.91-50.62 3.48-13.87-10.47-7.91-32.56-10.68-49.72-2.24-13.92-6.08-27.14-3.96-41.08 2.47-16.29 3.96-35.11 17.07-45.09 13.16-10.02 32.31-9.25 48.19-4.61 13.74 4.02 19.79 19.33 31.3 27.84z" id="b6pUayyxtg"/><path d="M518.05 73.01c14.02 1.6 29.59-6.98 41.29.9 11.92 8.02 14.13 24.36 17.08 38.42 2.95 14.03 5.51 28.81-.22 41.95-5.75 13.21-19.34 20.03-30.66 28.94-13.63 10.72-24.9 30.43-42.1 28.31-17.25-2.13-23.13-24.24-34.11-37.71-8.9-10.94-18.84-20.46-23.98-33.6-5.99-15.34-14.12-32.38-7.75-47.58 6.38-15.26 23.36-24.17 39.43-28.09 13.9-3.39 26.8 6.85 41.02 8.46z" id="aXZL2GGF2"/><path d="M512.95 108.7c-1.27.34-2.47.89-3.56 1.62-1.54-.9-3.02-1.63-4.44-1.81-1.77-.22-3.41-.1-5.31-.06-2.26.05-3.74 1.2-6.13 2.12-2.39.92-5.47 1.8-9.81 1.8h-2v19.19l1.12.56 3.69 1.81 13.13 14.57c.03.04.05.06.06.07 1.5 1.47 3.52 1.84 5.31 1.74 1.79-.1 3.47-.62 4.81-1.43 2.96-1.78 11-7.35 11-7.35.01-.01.08-.05.19-.13.08-.07.12-.11.13-.12.95-.94 1.43-2.1 1.75-3.3.51-.26 3.07-1.55 7.68-3.87l5.75-1.93 1.38-.43v-19.38h-2c-3.36.03-6.7-.61-9.81-1.86-2.4-.94-3.85-2.07-6.13-2.12-1.22-.03-2.33-.07-3.44-.06-1.47.04-2.6.16-3.37.37zm6.69 3.67c.21.01 2.13.83 4.81 1.87 2.26.89 5.41 1.68 9.25 1.93v12.71l-4.63 1.56h-.12l-.13.06c-3.63 1.83-5.65 2.85-6.06 3.05-.32-.92-.83-1.77-1.5-2.49-.01-.01-.05-.07-.12-.19l-8.5-10.4-1.25-1.56-1.57 1.25c-3.22 2.62-5.01 4.07-5.37 4.36-1.81 1.25-3.27.89-4.75.19-.43-.2-.41-.27-.75-.5.61-.5 3.65-3.01 9.12-7.54.08-.07.12-.11.13-.12 2.71-2.68 4.37-3.61 5.81-3.99.72-.19 1.48-.24 2.38-.25h-.01c1.3.03 2.38.05 3.26.06zm-15.19.07c.52.06 1.12.5 1.63.68-.21.19-.36.3-.57.5-.01.01-.05.05-.12.13l-10.94 9.03-1.69 1.37c.9.93 1.4 1.45 1.5 1.55 0 0 1.45 1.56 3.69 2.62s5.7 1.66 8.81-.5c.01 0 .05-.05.13-.12l3.87-3.18 7.38 9.03.06.13.06.06c1.32 1.3 1.29 3.35 0 4.67-.01.02.02.05 0 .06-.01.01-.28.17-.31.19-.18-.23-1.05-1.42-2.63-3.55l-3.25 2.37c1.54 2.05 2.4 3.2 2.57 3.42-1.04.7-1.51 1.07-2.63 1.81-.18-.24-1.07-1.44-2.68-3.61l-3.26 2.37c1.54 2.05 2.4 3.19 2.57 3.42-.23.14-.7.45-.88.56-.63.38-1.85.81-2.94.87-1.02.06-1.8-.18-2.18-.5-.01 0-.03-.02-.06-.06L489.2 131l-.25-.31-3.25-1.62v-12.9c3.82-.25 6.99-1 9.25-1.86 2.67-1.02 4.58-1.87 4.81-1.87.18-.01 1.07-.03 2.69-.07.89 0 1.56.02 2 .07z" id="b5JvP8guZx"/><linearGradient id="gradientbcUj4iCzv" gradientUnits="userSpaceOnUse" x1="513.88" y1="50.93" x2="513.88" y2="199.04"><stop offset="0%" stop-color="#6d678e"/><stop offset="100%" stop-color="#f6b5cc"/></linearGradient><linearGradient id="gradientc7RlUGU3eR" gradientUnits="userSpaceOnUse" x1="476.85" y1="60.85" x2="550.91" y2="189.11"><stop offset="0%" stop-color="#6d678e" stop-opacity=".5"/><stop offset="100%" stop-color="#f6b5cc" stop-opacity=".5"/></linearGradient></defs><use xlink:href="#b6pUayyxtg" fill="url(#gradientbcUj4iCzv)"/><use xlink:href="#b6pUayyxtg" fill-opacity="0" stroke="#000" stroke-opacity="0"/><use xlink:href="#aXZL2GGF2" fill="url(#gradientc7RlUGU3eR)"/><use xlink:href="#aXZL2GGF2" fill-opacity="0" stroke="#000" stroke-opacity="0"/><use xlink:href="#b5JvP8guZx" fill="#fff"/><use xlink:href="#b5JvP8guZx" fill-opacity="0" stroke="#000" stroke-opacity="0"/></svg>