<svg xmlns="http://www.w3.org/2000/svg" xmlns:xlink="http://www.w3.org/1999/xlink" viewBox="30.948 12.647 154.521 158.436" width="150.52" height="154.44"><defs><path d="M82.67 149.27c-13.13-5.17-30.39-.91-39.65-11.55-9.43-10.84-7.35-27.19-6.56-41.53.79-14.32 2.14-29.26 11.08-40.47 8.97-11.27 23.86-14.34 37.1-20.01 15.94-6.83 31.93-22.96 48-16.46 16.11 6.52 16.07 29.41 23.18 45.26 5.77 12.87 12.9 24.64 14.47 38.66 1.82 16.37 5.25 34.93-4.83 47.97-10.11 13.08-28.82 17.29-45.35 16.92-14.31-.32-24.12-13.55-37.44-18.79z" id="b1KxT6LY9G"/><path d="M109.57 151.43c-13.95 2.09-26.77 14.41-40.11 9.82-13.59-4.67-19.96-19.87-26.45-32.69-6.47-12.79-12.77-26.4-10.64-40.58 2.14-14.25 13.5-24.35 22.13-35.89 10.39-13.88 16.17-35.84 33.34-38.24 17.21-2.41 28.62 17.43 42.7 27.6 11.43 8.26 23.5 14.89 31.86 26.25 9.76 13.26 22.02 27.62 19.81 43.95-2.22 16.39-16.31 29.39-30.82 37.33-12.56 6.88-27.66.33-41.82 2.45z" id="aJ9tXyOy"/><path d="M92.5 71.5c-9.94 0-18 8.06-18 18s8.06 18 18 18 18-8.06 18-18-8.06-18-18-18z" id="b7BIgsKwm6"/><path d="M118.5 71.5c-9.94 0-18 8.06-18 18s8.06 18 18 18 18-8.06 18-18-8.06-18-18-18z" id="e7sI0DgOj"/><path d="M105.5 88.5c-9.94 0-18 8.06-18 18s8.06 18 18 18 18-8.06 18-18-8.06-18-18-18z" id="cgiXktkUa"/><linearGradient id="gradienta47Sy5eTK" gradientUnits="userSpaceOnUse" x1="119.32" y1="171.68" x2="80.98" y2="28.62"><stop offset="0%" stop-color="#6d678e"/><stop offset="100%" stop-color="#f6b5cc"/></linearGradient><linearGradient id="gradientatHsoH2iD" gradientUnits="userSpaceOnUse" x1="152.51" y1="152.51" x2="47.79" y2="47.79"><stop offset="0%" stop-color="#6d678e" stop-opacity=".5"/><stop offset="100%" stop-color="#f6b5cc" stop-opacity=".5"/></linearGradient></defs><use xlink:href="#b1KxT6LY9G" fill="url(#gradienta47Sy5eTK)"/><use xlink:href="#b1KxT6LY9G" fill-opacity="0" stroke="#000" stroke-opacity="0"/><use xlink:href="#aJ9tXyOy" fill="url(#gradientatHsoH2iD)"/><use xlink:href="#aJ9tXyOy" fill-opacity="0" stroke="#000" stroke-opacity="0"/><use xlink:href="#b7BIgsKwm6" fill-opacity="0"/><use xlink:href="#b7BIgsKwm6" fill-opacity="0" stroke="#fff" stroke-width="3"/><g fill-opacity="0"><use xlink:href="#e7sI0DgOj"/><use xlink:href="#e7sI0DgOj" stroke="#fff" stroke-width="3"/></g><g fill-opacity="0"><use xlink:href="#cgiXktkUa"/><use xlink:href="#cgiXktkUa" stroke="#fff" stroke-width="3"/></g></svg>